<?xml version="1.0" encoding="UTF-8" standalone="no"?>
<!-- Uploaded to: SVG Repo, www.svgrepo.com, Generator: SVG Repo Mixer Tools -->

<svg
   width="700"
   height="463.20001"
   viewBox="0 0 28 18.528"
   version="1.1"
   id="svg6"
   sodipodi:docname="cuda.svg"
   inkscape:version="1.1.2 (0a00cf5339, 2022-02-04)"
   xmlns:inkscape="http://www.inkscape.org/namespaces/inkscape"
   xmlns:sodipodi="http://sodipodi.sourceforge.net/DTD/sodipodi-0.dtd"
   xmlns="http://www.w3.org/2000/svg"
   xmlns:svg="http://www.w3.org/2000/svg"
   xmlns:rdf="http://www.w3.org/1999/02/22-rdf-syntax-ns#"
   xmlns:cc="http://creativecommons.org/ns#"
   xmlns:dc="http://purl.org/dc/elements/1.1/">
  <defs
     id="defs10" />
  <sodipodi:namedview
     id="namedview8"
     pagecolor="#ffffff"
     bordercolor="#666666"
     borderopacity="1.0"
     inkscape:pageshadow="2"
     inkscape:pageopacity="0.0"
     inkscape:pagecheckerboard="0"
     showgrid="false"
     fit-margin-top="0"
     fit-margin-left="0"
     fit-margin-right="0"
     fit-margin-bottom="0"
     inkscape:zoom="0.524375"
     inkscape:cx="59.117998"
     inkscape:cy="263.17044"
     inkscape:window-width="1920"
     inkscape:window-height="1011"
     inkscape:window-x="1080"
     inkscape:window-y="413"
     inkscape:window-maximized="1"
     inkscape:current-layer="svg6" />
  <title
     id="title2">file_type_cuda</title>
  <path
     d="M 10.447,5.529 V 3.855 c 0.163,-0.012 0.327,-0.02 0.494,-0.026 4.577,-0.143 7.581,3.934 7.581,3.934 0,0 -3.244,4.501 -6.722,4.501 A 4.2,4.2 0 0 1 10.447,12.047 V 6.976 c 1.782,0.215 2.14,1 3.212,2.788 L 16.042,7.755 A 6.312,6.312 0 0 0 11.37,5.474 8.606,8.606 0 0 0 10.447,5.529 m 0,-5.529 v 2.5 c 0.164,-0.013 0.329,-0.024 0.494,-0.03 6.366,-0.214 10.513,5.221 10.513,5.221 0,0 -4.764,5.792 -9.726,5.792 a 7.4,7.4 0 0 1 -1.281,-0.112 v 1.545 a 8.528,8.528 0 0 0 1.067,0.069 c 4.618,0 7.958,-2.358 11.192,-5.15 0.535,0.43 2.731,1.474 3.182,1.932 -3.075,2.574 -10.241,4.649 -14.3,4.649 -0.392,0 -0.769,-0.024 -1.138,-0.06 v 2.172 H 28 V 0 Z m 0,12.051 v 1.32 C 6.176,12.609 4.99,8.171 4.99,8.171 a 9.234,9.234 0 0 1 5.457,-2.64 V 6.978 H 10.441 A 4.1,4.1 0 0 0 7.257,8.434 c 0,0 0.782,2.811 3.19,3.62 M 2.861,7.977 A 10.576,10.576 0 0 1 10.447,3.855 V 2.5 C 4.848,2.949 0,7.691 0,7.691 c 0,0 2.746,7.939 10.447,8.665 v -1.44 C 4.8,14.205 2.861,7.977 2.861,7.977 Z"
     style="fill:#80bc00"
     id="path4" />
  <metadata
     id="metadata827">
    <rdf:RDF>
      <cc:Work
         rdf:about="">
        <dc:title>file_type_cuda</dc:title>
      </cc:Work>
    </rdf:RDF>
  </metadata>
</svg>
