<?xml version="1.0" encoding="utf-8" standalone="no"?>
<!DOCTYPE svg PUBLIC "-//W3C//DTD SVG 1.1//EN"
  "http://www.w3.org/Graphics/SVG/1.1/DTD/svg11.dtd">
<svg xmlns:xlink="http://www.w3.org/1999/xlink" width="432pt" height="288pt" viewBox="0 0 432 288" xmlns="http://www.w3.org/2000/svg" version="1.1">
 <metadata>
  <rdf:RDF xmlns:dc="http://purl.org/dc/elements/1.1/" xmlns:cc="http://creativecommons.org/ns#" xmlns:rdf="http://www.w3.org/1999/02/22-rdf-syntax-ns#">
   <cc:Work>
    <dc:type rdf:resource="http://purl.org/dc/dcmitype/StillImage"/>
    <dc:date>2024-11-26T12:25:51.132163</dc:date>
    <dc:format>image/svg+xml</dc:format>
    <dc:creator>
     <cc:Agent>
      <dc:title>Matplotlib v3.8.4, https://matplotlib.org/</dc:title>
     </cc:Agent>
    </dc:creator>
   </cc:Work>
  </rdf:RDF>
 </metadata>
 <defs>
  <style type="text/css">*{stroke-linejoin: round; stroke-linecap: butt}</style>
 </defs>
 <g id="figure_1">
  <g id="patch_1">
   <path d="M 0 288 
L 432 288 
L 432 0 
L 0 0 
z
" style="fill: #ffffff"/>
  </g>
  <g id="axes_1">
   <g id="patch_2">
    <path d="M 49.667786 247.381683 
L 421.2 247.381683 
L 421.2 10.8 
L 49.667786 10.8 
z
" style="fill: #ffffff"/>
   </g>
   <g id="PathCollection_1">
    <path d="M 261.578798 63.165579 
C 262.441971 63.165579 263.269907 62.822637 263.880262 62.212282 
C 264.490618 61.601926 264.83356 60.77399 264.83356 59.910817 
C 264.83356 59.047645 264.490618 58.219709 263.880262 57.609353 
C 263.269907 56.998998 262.441971 56.656056 261.578798 56.656056 
C 260.715625 56.656056 259.887689 56.998998 259.277334 57.609353 
C 258.666978 58.219709 258.324036 59.047645 258.324036 59.910817 
C 258.324036 60.77399 258.666978 61.601926 259.277334 62.212282 
C 259.887689 62.822637 260.715625 63.165579 261.578798 63.165579 
z
" clip-path="url(#p8fa83b7038)" style="fill: #1f77b4"/>
   </g>
   <g id="PathCollection_2">
    <path d="M 264.347769 65.363627 
C 264.949594 65.363627 265.52685 65.12452 265.952404 64.698966 
C 266.377958 64.273412 266.617065 63.696156 266.617065 63.094331 
C 266.617065 62.492507 266.377958 61.915251 265.952404 61.489697 
C 265.52685 61.064143 264.949594 60.825036 264.347769 60.825036 
C 263.745945 60.825036 263.168689 61.064143 262.743135 61.489697 
C 262.317581 61.915251 262.078474 62.492507 262.078474 63.094331 
C 262.078474 63.696156 262.317581 64.273412 262.743135 64.698966 
C 263.168689 65.12452 263.745945 65.363627 264.347769 65.363627 
z
" clip-path="url(#p8fa83b7038)" style="fill: #ff7f0e"/>
   </g>
   <g id="PathCollection_3">
    <path d="M 206.957454 114.767071 
C 208.048453 114.767071 209.094913 114.333613 209.866366 113.56216 
C 210.637818 112.790708 211.071276 111.744247 211.071276 110.653249 
C 211.071276 109.562251 210.637818 108.51579 209.866366 107.744338 
C 209.094913 106.972886 208.048453 106.539427 206.957454 106.539427 
C 205.866456 106.539427 204.819995 106.972886 204.048543 107.744338 
C 203.277091 108.51579 202.843633 109.562251 202.843633 110.653249 
C 202.843633 111.744247 203.277091 112.790708 204.048543 113.56216 
C 204.819995 114.333613 205.866456 114.767071 206.957454 114.767071 
z
" clip-path="url(#p8fa83b7038)" style="fill: #2ca02c"/>
   </g>
   <g id="PathCollection_4">
    <path d="M 181.538741 141.517498 
C 182.253317 141.517498 182.938722 141.233593 183.444004 140.728312 
C 183.949286 140.22303 184.23319 139.537624 184.23319 138.823048 
C 184.23319 138.108472 183.949286 137.423066 183.444004 136.917784 
C 182.938722 136.412503 182.253317 136.128598 181.538741 136.128598 
C 180.824164 136.128598 180.138759 136.412503 179.633477 136.917784 
C 179.128195 137.423066 178.844291 138.108472 178.844291 138.823048 
C 178.844291 139.537624 179.128195 140.22303 179.633477 140.728312 
C 180.138759 141.233593 180.824164 141.517498 181.538741 141.517498 
z
" clip-path="url(#p8fa83b7038)" style="fill: #d62728"/>
   </g>
   <g id="PathCollection_5">
    <path d="M 273.060328 62.316067 
C 274.386724 62.316067 275.658973 61.789085 276.596877 60.851181 
C 277.53478 59.913277 278.061763 58.641029 278.061763 57.314633 
C 278.061763 55.988237 277.53478 54.715988 276.596877 53.778084 
C 275.658973 52.840181 274.386724 52.313198 273.060328 52.313198 
C 271.733932 52.313198 270.461684 52.840181 269.52378 53.778084 
C 268.585876 54.715988 268.058894 55.988237 268.058894 57.314633 
C 268.058894 58.641029 268.585876 59.913277 269.52378 60.851181 
C 270.461684 61.789085 271.733932 62.316067 273.060328 62.316067 
z
" clip-path="url(#p8fa83b7038)" style="fill: #9467bd"/>
   </g>
   <g id="PathCollection_6">
    <path d="M 160.616032 149.234845 
C 161.272695 149.234845 161.902552 148.97395 162.366883 148.509619 
C 162.831214 148.045288 163.092109 147.415432 163.092109 146.758769 
C 163.092109 146.102105 162.831214 145.472249 162.366883 145.007918 
C 161.902552 144.543587 161.272695 144.282692 160.616032 144.282692 
C 159.959369 144.282692 159.329512 144.543587 158.865181 145.007918 
C 158.40085 145.472249 158.139955 146.102105 158.139955 146.758769 
C 158.139955 147.415432 158.40085 148.045288 158.865181 148.509619 
C 159.329512 148.97395 159.959369 149.234845 160.616032 149.234845 
z
" clip-path="url(#p8fa83b7038)" style="fill: #8c564b"/>
   </g>
   <g id="PathCollection_7">
    <path d="M 160.616032 149.942545 
C 161.279532 149.942545 161.915946 149.678934 162.385111 149.209769 
C 162.854276 148.740603 163.117888 148.10419 163.117888 147.44069 
C 163.117888 146.77719 162.854276 146.140776 162.385111 145.671611 
C 161.915946 145.202445 161.279532 144.938834 160.616032 144.938834 
C 159.952532 144.938834 159.316118 145.202445 158.846953 145.671611 
C 158.377788 146.140776 158.114176 146.77719 158.114176 147.44069 
C 158.114176 148.10419 158.377788 148.740603 158.846953 149.209769 
C 159.316118 149.678934 159.952532 149.942545 160.616032 149.942545 
z
" clip-path="url(#p8fa83b7038)" style="fill: #e377c2"/>
   </g>
   <g id="PathCollection_8">
    <path d="M 257.595037 56.673636 
C 258.538976 56.673636 259.44438 56.298605 260.111846 55.63114 
C 260.779311 54.963674 261.154342 54.05827 261.154342 53.114331 
C 261.154342 52.170393 260.779311 51.264988 260.111846 50.597523 
C 259.44438 49.930057 258.538976 49.555027 257.595037 49.555027 
C 256.651099 49.555027 255.745694 49.930057 255.078229 50.597523 
C 254.410763 51.264988 254.035733 52.170393 254.035733 53.114331 
C 254.035733 54.05827 254.410763 54.963674 255.078229 55.63114 
C 255.745694 56.298605 256.651099 56.673636 257.595037 56.673636 
z
" clip-path="url(#p8fa83b7038)" style="fill: #7f7f7f"/>
   </g>
   <g id="PathCollection_9">
    <defs>
     <path id="m081c1d1a26" d="M -3 0 
L 3 0 
M 0 3 
L 0 -3 
" style="stroke: #bcbd22; stroke-width: 1.5"/>
    </defs>
    <g clip-path="url(#p8fa83b7038)">
     <use xlink:href="#m081c1d1a26" x="200.90374" y="117.723977" style="fill: #bcbd22; stroke: #bcbd22; stroke-width: 1.5"/>
    </g>
   </g>
   <g id="matplotlib.axis_1">
    <g id="xtick_1">
     <g id="line2d_1">
      <path d="M 66.555614 247.381683 
L 66.555614 10.8 
" clip-path="url(#p8fa83b7038)" style="fill: none; stroke: #b0b0b0; stroke-width: 0.8; stroke-linecap: square"/>
     </g>
     <g id="line2d_2">
      <defs>
       <path id="m0eefc44eff" d="M 0 0 
L 0 3.5 
" style="stroke: #000000; stroke-width: 0.8"/>
      </defs>
      <g>
       <use xlink:href="#m0eefc44eff" x="66.555614" y="247.381683" style="stroke: #000000; stroke-width: 0.8"/>
      </g>
     </g>
     <g id="text_1">
      <!-- $\mathdefault{10^{-2}}$ -->
      <g transform="translate(56.475327 261.300182) scale(0.1 -0.1)">
       <defs>
        <path id="CMR17-31" d="M 1702 4083 
C 1702 4217 1696 4224 1606 4224 
C 1357 3927 979 3833 621 3820 
C 602 3820 570 3820 563 3808 
C 557 3795 557 3782 557 3648 
C 755 3648 1088 3686 1344 3839 
L 1344 467 
C 1344 243 1331 166 781 166 
L 589 166 
L 589 0 
C 896 6 1216 12 1523 12 
C 1830 12 2150 6 2458 0 
L 2458 166 
L 2266 166 
C 1715 166 1702 236 1702 467 
L 1702 4083 
z
" transform="scale(0.015625)"/>
        <path id="CMR17-30" d="M 2688 2038 
C 2688 2430 2682 3099 2413 3613 
C 2176 4063 1798 4224 1466 4224 
C 1158 4224 768 4082 525 3620 
C 269 3137 243 2539 243 2038 
C 243 1671 250 1112 448 623 
C 723 -39 1216 -128 1466 -128 
C 1760 -128 2208 -7 2470 604 
C 2662 1048 2688 1568 2688 2038 
z
M 1466 -26 
C 1056 -26 813 328 723 816 
C 653 1196 653 1749 653 2109 
C 653 2604 653 3015 736 3407 
C 858 3954 1216 4121 1466 4121 
C 1728 4121 2067 3947 2189 3420 
C 2272 3054 2278 2623 2278 2109 
C 2278 1691 2278 1176 2202 797 
C 2067 96 1690 -26 1466 -26 
z
" transform="scale(0.015625)"/>
        <path id="CMSY10-0" d="M 4218 1472 
C 4326 1472 4442 1472 4442 1600 
C 4442 1728 4326 1728 4218 1728 
L 755 1728 
C 646 1728 531 1728 531 1600 
C 531 1472 646 1472 755 1472 
L 4218 1472 
z
" transform="scale(0.015625)"/>
        <path id="CMR17-32" d="M 2669 990 
L 2554 990 
C 2490 537 2438 460 2413 422 
C 2381 371 1920 371 1830 371 
L 602 371 
C 832 620 1280 1073 1824 1596 
C 2214 1966 2669 2400 2669 3033 
C 2669 3788 2067 4224 1395 4224 
C 691 4224 262 3603 262 3027 
C 262 2777 448 2745 525 2745 
C 589 2745 781 2783 781 3007 
C 781 3206 614 3264 525 3264 
C 486 3264 448 3257 422 3244 
C 544 3788 915 4057 1306 4057 
C 1862 4057 2227 3616 2227 3033 
C 2227 2477 1901 1998 1536 1583 
L 262 147 
L 262 0 
L 2515 0 
L 2669 990 
z
" transform="scale(0.015625)"/>
       </defs>
       <use xlink:href="#CMR17-31" transform="scale(0.996264)"/>
       <use xlink:href="#CMR17-30" transform="translate(45.690477 0) scale(0.996264)"/>
       <use xlink:href="#CMSY10-0" transform="translate(91.380954 36.153639) scale(0.697382)"/>
       <use xlink:href="#CMR17-32" transform="translate(145.621947 36.153639) scale(0.697382)"/>
      </g>
     </g>
    </g>
    <g id="xtick_2">
     <g id="line2d_3">
      <path d="M 150.994753 247.381683 
L 150.994753 10.8 
" clip-path="url(#p8fa83b7038)" style="fill: none; stroke: #b0b0b0; stroke-width: 0.8; stroke-linecap: square"/>
     </g>
     <g id="line2d_4">
      <g>
       <use xlink:href="#m0eefc44eff" x="150.994753" y="247.381683" style="stroke: #000000; stroke-width: 0.8"/>
      </g>
     </g>
     <g id="text_2">
      <!-- $\mathdefault{10^{-1}}$ -->
      <g transform="translate(140.914467 261.300182) scale(0.1 -0.1)">
       <use xlink:href="#CMR17-31" transform="scale(0.996264)"/>
       <use xlink:href="#CMR17-30" transform="translate(45.690477 0) scale(0.996264)"/>
       <use xlink:href="#CMSY10-0" transform="translate(91.380954 36.153639) scale(0.697382)"/>
       <use xlink:href="#CMR17-31" transform="translate(145.621947 36.153639) scale(0.697382)"/>
      </g>
     </g>
    </g>
    <g id="xtick_3">
     <g id="line2d_5">
      <path d="M 235.433893 247.381683 
L 235.433893 10.8 
" clip-path="url(#p8fa83b7038)" style="fill: none; stroke: #b0b0b0; stroke-width: 0.8; stroke-linecap: square"/>
     </g>
     <g id="line2d_6">
      <g>
       <use xlink:href="#m0eefc44eff" x="235.433893" y="247.381683" style="stroke: #000000; stroke-width: 0.8"/>
      </g>
     </g>
     <g id="text_3">
      <!-- $\mathdefault{10^{0}}$ -->
      <g transform="translate(228.466939 261.300182) scale(0.1 -0.1)">
       <use xlink:href="#CMR17-31" transform="scale(0.996264)"/>
       <use xlink:href="#CMR17-30" transform="translate(45.690477 0) scale(0.996264)"/>
       <use xlink:href="#CMR17-30" transform="translate(91.380954 36.153639) scale(0.697382)"/>
      </g>
     </g>
    </g>
    <g id="xtick_4">
     <g id="line2d_7">
      <path d="M 319.873033 247.381683 
L 319.873033 10.8 
" clip-path="url(#p8fa83b7038)" style="fill: none; stroke: #b0b0b0; stroke-width: 0.8; stroke-linecap: square"/>
     </g>
     <g id="line2d_8">
      <g>
       <use xlink:href="#m0eefc44eff" x="319.873033" y="247.381683" style="stroke: #000000; stroke-width: 0.8"/>
      </g>
     </g>
     <g id="text_4">
      <!-- $\mathdefault{10^{1}}$ -->
      <g transform="translate(312.906078 261.300182) scale(0.1 -0.1)">
       <use xlink:href="#CMR17-31" transform="scale(0.996264)"/>
       <use xlink:href="#CMR17-30" transform="translate(45.690477 0) scale(0.996264)"/>
       <use xlink:href="#CMR17-31" transform="translate(91.380954 36.153639) scale(0.697382)"/>
      </g>
     </g>
    </g>
    <g id="xtick_5">
     <g id="line2d_9">
      <path d="M 404.312172 247.381683 
L 404.312172 10.8 
" clip-path="url(#p8fa83b7038)" style="fill: none; stroke: #b0b0b0; stroke-width: 0.8; stroke-linecap: square"/>
     </g>
     <g id="line2d_10">
      <g>
       <use xlink:href="#m0eefc44eff" x="404.312172" y="247.381683" style="stroke: #000000; stroke-width: 0.8"/>
      </g>
     </g>
     <g id="text_5">
      <!-- $\mathdefault{10^{2}}$ -->
      <g transform="translate(397.345218 261.300182) scale(0.1 -0.1)">
       <use xlink:href="#CMR17-31" transform="scale(0.996264)"/>
       <use xlink:href="#CMR17-30" transform="translate(45.690477 0) scale(0.996264)"/>
       <use xlink:href="#CMR17-32" transform="translate(91.380954 36.153639) scale(0.697382)"/>
      </g>
     </g>
    </g>
    <g id="xtick_6">
     <g id="line2d_11">
      <defs>
       <path id="mfe204a8978" d="M 0 0 
L 0 2 
" style="stroke: #000000; stroke-width: 0.6"/>
      </defs>
      <g>
       <use xlink:href="#mfe204a8978" x="53.475826" y="247.381683" style="stroke: #000000; stroke-width: 0.6"/>
      </g>
     </g>
    </g>
    <g id="xtick_7">
     <g id="line2d_12">
      <g>
       <use xlink:href="#mfe204a8978" x="58.372616" y="247.381683" style="stroke: #000000; stroke-width: 0.6"/>
      </g>
     </g>
    </g>
    <g id="xtick_8">
     <g id="line2d_13">
      <g>
       <use xlink:href="#mfe204a8978" x="62.691891" y="247.381683" style="stroke: #000000; stroke-width: 0.6"/>
      </g>
     </g>
    </g>
    <g id="xtick_9">
     <g id="line2d_14">
      <g>
       <use xlink:href="#mfe204a8978" x="91.974328" y="247.381683" style="stroke: #000000; stroke-width: 0.6"/>
      </g>
     </g>
    </g>
    <g id="xtick_10">
     <g id="line2d_15">
      <g>
       <use xlink:href="#mfe204a8978" x="106.843322" y="247.381683" style="stroke: #000000; stroke-width: 0.6"/>
      </g>
     </g>
    </g>
    <g id="xtick_11">
     <g id="line2d_16">
      <g>
       <use xlink:href="#mfe204a8978" x="117.393041" y="247.381683" style="stroke: #000000; stroke-width: 0.6"/>
      </g>
     </g>
    </g>
    <g id="xtick_12">
     <g id="line2d_17">
      <g>
       <use xlink:href="#mfe204a8978" x="125.57604" y="247.381683" style="stroke: #000000; stroke-width: 0.6"/>
      </g>
     </g>
    </g>
    <g id="xtick_13">
     <g id="line2d_18">
      <g>
       <use xlink:href="#mfe204a8978" x="132.262036" y="247.381683" style="stroke: #000000; stroke-width: 0.6"/>
      </g>
     </g>
    </g>
    <g id="xtick_14">
     <g id="line2d_19">
      <g>
       <use xlink:href="#mfe204a8978" x="137.914965" y="247.381683" style="stroke: #000000; stroke-width: 0.6"/>
      </g>
     </g>
    </g>
    <g id="xtick_15">
     <g id="line2d_20">
      <g>
       <use xlink:href="#mfe204a8978" x="142.811755" y="247.381683" style="stroke: #000000; stroke-width: 0.6"/>
      </g>
     </g>
    </g>
    <g id="xtick_16">
     <g id="line2d_21">
      <g>
       <use xlink:href="#mfe204a8978" x="147.13103" y="247.381683" style="stroke: #000000; stroke-width: 0.6"/>
      </g>
     </g>
    </g>
    <g id="xtick_17">
     <g id="line2d_22">
      <g>
       <use xlink:href="#mfe204a8978" x="176.413467" y="247.381683" style="stroke: #000000; stroke-width: 0.6"/>
      </g>
     </g>
    </g>
    <g id="xtick_18">
     <g id="line2d_23">
      <g>
       <use xlink:href="#mfe204a8978" x="191.282462" y="247.381683" style="stroke: #000000; stroke-width: 0.6"/>
      </g>
     </g>
    </g>
    <g id="xtick_19">
     <g id="line2d_24">
      <g>
       <use xlink:href="#mfe204a8978" x="201.832181" y="247.381683" style="stroke: #000000; stroke-width: 0.6"/>
      </g>
     </g>
    </g>
    <g id="xtick_20">
     <g id="line2d_25">
      <g>
       <use xlink:href="#mfe204a8978" x="210.015179" y="247.381683" style="stroke: #000000; stroke-width: 0.6"/>
      </g>
     </g>
    </g>
    <g id="xtick_21">
     <g id="line2d_26">
      <g>
       <use xlink:href="#mfe204a8978" x="216.701175" y="247.381683" style="stroke: #000000; stroke-width: 0.6"/>
      </g>
     </g>
    </g>
    <g id="xtick_22">
     <g id="line2d_27">
      <g>
       <use xlink:href="#mfe204a8978" x="222.354105" y="247.381683" style="stroke: #000000; stroke-width: 0.6"/>
      </g>
     </g>
    </g>
    <g id="xtick_23">
     <g id="line2d_28">
      <g>
       <use xlink:href="#mfe204a8978" x="227.250895" y="247.381683" style="stroke: #000000; stroke-width: 0.6"/>
      </g>
     </g>
    </g>
    <g id="xtick_24">
     <g id="line2d_29">
      <g>
       <use xlink:href="#mfe204a8978" x="231.57017" y="247.381683" style="stroke: #000000; stroke-width: 0.6"/>
      </g>
     </g>
    </g>
    <g id="xtick_25">
     <g id="line2d_30">
      <g>
       <use xlink:href="#mfe204a8978" x="260.852607" y="247.381683" style="stroke: #000000; stroke-width: 0.6"/>
      </g>
     </g>
    </g>
    <g id="xtick_26">
     <g id="line2d_31">
      <g>
       <use xlink:href="#mfe204a8978" x="275.721601" y="247.381683" style="stroke: #000000; stroke-width: 0.6"/>
      </g>
     </g>
    </g>
    <g id="xtick_27">
     <g id="line2d_32">
      <g>
       <use xlink:href="#mfe204a8978" x="286.271321" y="247.381683" style="stroke: #000000; stroke-width: 0.6"/>
      </g>
     </g>
    </g>
    <g id="xtick_28">
     <g id="line2d_33">
      <g>
       <use xlink:href="#mfe204a8978" x="294.454319" y="247.381683" style="stroke: #000000; stroke-width: 0.6"/>
      </g>
     </g>
    </g>
    <g id="xtick_29">
     <g id="line2d_34">
      <g>
       <use xlink:href="#mfe204a8978" x="301.140315" y="247.381683" style="stroke: #000000; stroke-width: 0.6"/>
      </g>
     </g>
    </g>
    <g id="xtick_30">
     <g id="line2d_35">
      <g>
       <use xlink:href="#mfe204a8978" x="306.793244" y="247.381683" style="stroke: #000000; stroke-width: 0.6"/>
      </g>
     </g>
    </g>
    <g id="xtick_31">
     <g id="line2d_36">
      <g>
       <use xlink:href="#mfe204a8978" x="311.690034" y="247.381683" style="stroke: #000000; stroke-width: 0.6"/>
      </g>
     </g>
    </g>
    <g id="xtick_32">
     <g id="line2d_37">
      <g>
       <use xlink:href="#mfe204a8978" x="316.009309" y="247.381683" style="stroke: #000000; stroke-width: 0.6"/>
      </g>
     </g>
    </g>
    <g id="xtick_33">
     <g id="line2d_38">
      <g>
       <use xlink:href="#mfe204a8978" x="345.291746" y="247.381683" style="stroke: #000000; stroke-width: 0.6"/>
      </g>
     </g>
    </g>
    <g id="xtick_34">
     <g id="line2d_39">
      <g>
       <use xlink:href="#mfe204a8978" x="360.160741" y="247.381683" style="stroke: #000000; stroke-width: 0.6"/>
      </g>
     </g>
    </g>
    <g id="xtick_35">
     <g id="line2d_40">
      <g>
       <use xlink:href="#mfe204a8978" x="370.71046" y="247.381683" style="stroke: #000000; stroke-width: 0.6"/>
      </g>
     </g>
    </g>
    <g id="xtick_36">
     <g id="line2d_41">
      <g>
       <use xlink:href="#mfe204a8978" x="378.893458" y="247.381683" style="stroke: #000000; stroke-width: 0.6"/>
      </g>
     </g>
    </g>
    <g id="xtick_37">
     <g id="line2d_42">
      <g>
       <use xlink:href="#mfe204a8978" x="385.579455" y="247.381683" style="stroke: #000000; stroke-width: 0.6"/>
      </g>
     </g>
    </g>
    <g id="xtick_38">
     <g id="line2d_43">
      <g>
       <use xlink:href="#mfe204a8978" x="391.232384" y="247.381683" style="stroke: #000000; stroke-width: 0.6"/>
      </g>
     </g>
    </g>
    <g id="xtick_39">
     <g id="line2d_44">
      <g>
       <use xlink:href="#mfe204a8978" x="396.129174" y="247.381683" style="stroke: #000000; stroke-width: 0.6"/>
      </g>
     </g>
    </g>
    <g id="xtick_40">
     <g id="line2d_45">
      <g>
       <use xlink:href="#mfe204a8978" x="400.448449" y="247.381683" style="stroke: #000000; stroke-width: 0.6"/>
      </g>
     </g>
    </g>
    <g id="text_6">
     <!-- Arithmetic Intensity (FLOP/byte) -->
     <g transform="translate(165.058807 274.70934) scale(0.1 -0.1)">
      <defs>
       <path id="CMSS17-41" d="M 2272 4416 
L 1722 4416 
L 166 0 
L 653 0 
L 1101 1280 
L 2816 1280 
L 3270 0 
L 3827 0 
L 2272 4416 
z
M 2694 1638 
L 1222 1638 
C 1530 2530 1914 3638 1958 3924 
L 1965 3924 
C 2010 3663 2138 3281 2246 2956 
L 2694 1638 
z
" transform="scale(0.015625)"/>
       <path id="CMSS17-72" d="M 954 1369 
C 954 1974 1395 2379 1958 2392 
L 1958 2816 
C 1549 2809 1165 2604 934 2270 
L 934 2783 
L 480 2783 
L 480 0 
L 954 0 
L 954 1369 
z
" transform="scale(0.015625)"/>
       <path id="CMSS17-69" d="M 979 4224 
L 442 4224 
L 442 3686 
L 979 3686 
L 979 4224 
z
M 947 2752 
L 474 2752 
L 474 0 
L 947 0 
L 947 2752 
z
" transform="scale(0.015625)"/>
       <path id="CMSS17-74" d="M 1069 2380 
L 1901 2380 
L 1901 2752 
L 1069 2752 
L 1069 3520 
L 614 3520 
L 614 2752 
L 109 2752 
L 109 2380 
L 602 2380 
L 602 751 
C 602 384 685 -64 1107 -64 
C 1427 -64 1722 25 2003 172 
L 1901 551 
C 1747 416 1562 339 1363 339 
C 1082 339 1069 699 1069 860 
L 1069 2380 
z
" transform="scale(0.015625)"/>
       <path id="CMSS17-68" d="M 2618 1878 
C 2618 2283 2522 2816 1798 2816 
C 1395 2816 1133 2617 947 2399 
L 947 4416 
L 474 4416 
L 474 0 
L 960 0 
L 960 1556 
C 960 1962 1114 2425 1549 2425 
C 2112 2425 2131 2045 2131 1826 
L 2131 0 
L 2618 0 
L 2618 1878 
z
" transform="scale(0.015625)"/>
       <path id="CMSS17-6d" d="M 4288 1878 
C 4288 2309 4179 2816 3462 2816 
C 2982 2816 2694 2515 2566 2328 
C 2451 2668 2182 2816 1798 2816 
C 1363 2816 1088 2566 941 2386 
L 941 2783 
L 474 2783 
L 474 0 
L 960 0 
L 960 1556 
C 960 1936 1101 2425 1555 2425 
C 2138 2425 2138 2013 2138 1826 
L 2138 0 
L 2624 0 
L 2624 1556 
C 2624 1936 2765 2425 3219 2425 
C 3802 2425 3802 2013 3802 1826 
L 3802 0 
L 4288 0 
L 4288 1878 
z
" transform="scale(0.015625)"/>
       <path id="CMSS17-65" d="M 2502 1375 
C 2502 1587 2490 2001 2285 2347 
C 2061 2713 1696 2816 1421 2816 
C 755 2816 192 2184 192 1363 
C 192 579 774 -64 1510 -64 
C 1798 -64 2150 19 2470 249 
C 2470 275 2458 414 2451 421 
C 2451 433 2432 629 2432 655 
C 2125 408 1773 326 1517 326 
C 1107 326 666 667 646 1375 
L 2502 1375 
z
M 698 1728 
C 781 2086 1062 2425 1421 2425 
C 1517 2425 1965 2412 2080 1728 
L 698 1728 
z
" transform="scale(0.015625)"/>
       <path id="CMSS17-63" d="M 2464 2540 
C 2464 2585 2170 2713 2093 2739 
C 1882 2816 1613 2816 1542 2816 
C 710 2816 211 2092 211 1363 
C 211 595 768 -64 1517 -64 
C 1946 -64 2253 76 2502 243 
L 2464 665 
C 2189 454 1869 339 1523 339 
C 1024 339 698 774 698 1369 
C 698 1830 909 2412 1549 2412 
C 1901 2412 2099 2342 2394 2143 
L 2464 2540 
z
" transform="scale(0.015625)"/>
       <path id="CMSS17-49" d="M 1094 4416 
L 557 4416 
L 557 0 
L 1094 0 
L 1094 4416 
z
" transform="scale(0.015625)"/>
       <path id="CMSS17-6e" d="M 2618 1878 
C 2618 2283 2522 2816 1798 2816 
C 1389 2816 1120 2604 941 2386 
L 941 2783 
L 474 2783 
L 474 0 
L 960 0 
L 960 1556 
C 960 1962 1114 2425 1549 2425 
C 2112 2425 2131 2045 2131 1826 
L 2131 0 
L 2618 0 
L 2618 1878 
z
" transform="scale(0.015625)"/>
       <path id="CMSS17-73" d="M 2061 2623 
C 1683 2803 1389 2816 1197 2816 
C 742 2816 198 2655 198 2009 
C 198 1363 902 1222 1094 1183 
C 1389 1126 1715 1062 1715 742 
C 1715 339 1254 339 1171 339 
C 915 339 563 409 243 639 
L 166 211 
C 531 0 883 -64 1178 -64 
C 1965 -64 2163 416 2163 780 
C 2163 1094 1984 1305 1862 1401 
C 1651 1567 1574 1587 1050 1695 
C 960 1708 646 1779 646 2067 
C 646 2431 1050 2431 1139 2431 
C 1555 2431 1811 2303 1984 2207 
L 2061 2623 
z
" transform="scale(0.015625)"/>
       <path id="CMSS17-79" d="M 2675 2752 
L 2176 2752 
C 1632 1293 1446 701 1434 383 
L 1427 383 
C 1408 695 1126 1459 902 2006 
L 602 2752 
L 83 2752 
L 1216 14 
C 1146 -177 1043 -464 1011 -527 
C 870 -884 774 -884 672 -884 
C 646 -884 442 -877 211 -807 
L 250 -1229 
C 410 -1261 570 -1280 685 -1280 
C 845 -1280 1165 -1280 1459 -495 
L 2675 2752 
z
" transform="scale(0.015625)"/>
       <path id="CMSS17-28" d="M 1613 4800 
C 1267 4447 474 3627 474 1603 
C 474 -428 1267 -1242 1613 -1600 
L 2003 -1600 
C 1216 -781 960 366 960 1596 
C 960 2820 1203 3973 2003 4800 
L 1613 4800 
z
" transform="scale(0.015625)"/>
       <path id="CMSS17-46" d="M 2918 1984 
L 2918 2374 
L 1101 2374 
L 1101 3993 
L 1882 3993 
C 1958 3993 2035 3987 2112 3987 
L 3168 3987 
L 3168 4403 
L 563 4403 
L 563 0 
L 1101 0 
L 1101 1984 
L 2918 1984 
z
" transform="scale(0.015625)"/>
       <path id="CMSS17-4c" d="M 1670 416 
C 1594 416 1517 409 1440 409 
L 1101 409 
L 1101 4416 
L 563 4416 
L 563 0 
L 3002 0 
L 3002 416 
L 1670 416 
z
" transform="scale(0.015625)"/>
       <path id="CMSS17-4f" d="M 4096 2201 
C 4096 3541 3219 4544 2214 4544 
C 1210 4544 333 3535 333 2201 
C 333 855 1222 -128 2214 -128 
C 3206 -128 4096 855 4096 2201 
z
M 2214 275 
C 1510 275 870 1067 870 2285 
C 870 3470 1549 4140 2214 4140 
C 2880 4140 3558 3470 3558 2285 
C 3558 1061 2912 275 2214 275 
z
" transform="scale(0.015625)"/>
       <path id="CMSS17-50" d="M 2106 1856 
C 2874 1856 3501 2447 3501 3139 
C 3501 3818 2899 4416 2067 4416 
L 570 4416 
L 570 0 
L 1107 0 
L 1107 1856 
L 2106 1856 
z
M 1926 4057 
C 2669 4057 2995 3598 2995 3139 
C 2995 2711 2694 2227 1926 2227 
L 1094 2227 
L 1094 4057 
L 1926 4057 
z
" transform="scale(0.015625)"/>
       <path id="CMSS17-2f" d="M 2637 4575 
C 2669 4658 2669 4671 2669 4684 
C 2669 4761 2611 4800 2560 4800 
C 2483 4800 2458 4748 2432 4671 
L 365 -1376 
C 333 -1460 333 -1472 333 -1485 
C 333 -1562 390 -1600 442 -1600 
C 518 -1600 544 -1549 570 -1472 
L 2637 4575 
z
" transform="scale(0.015625)"/>
       <path id="CMSS17-62" d="M 954 4416 
L 480 4416 
L 480 -13 
L 966 -13 
L 966 275 
C 1210 38 1504 -64 1766 -64 
C 2381 -64 2880 559 2880 1382 
C 2880 2133 2496 2816 1926 2816 
C 1523 2816 1165 2649 954 2476 
L 954 4416 
z
M 966 2095 
C 1107 2276 1306 2425 1587 2425 
C 1965 2425 2394 2146 2394 1382 
C 2394 566 1882 326 1530 326 
C 1402 326 1267 358 1139 468 
C 966 624 966 721 966 812 
L 966 2095 
z
" transform="scale(0.015625)"/>
       <path id="CMSS17-29" d="M 723 -1600 
C 1069 -1248 1862 -428 1862 1596 
C 1862 3627 1069 4440 723 4800 
L 333 4800 
C 1120 3979 1376 2833 1376 1603 
C 1376 379 1133 -774 333 -1600 
L 723 -1600 
z
" transform="scale(0.015625)"/>
      </defs>
      <use xlink:href="#CMSS17-41" transform="scale(0.996264)"/>
      <use xlink:href="#CMSS17-72" transform="translate(62.217855 0) scale(0.996264)"/>
      <use xlink:href="#CMSS17-69" transform="translate(94.127627 0) scale(0.996264)"/>
      <use xlink:href="#CMSS17-74" transform="translate(116.308351 0) scale(0.996264)"/>
      <use xlink:href="#CMSS17-68" transform="translate(150.139917 0) scale(0.996264)"/>
      <use xlink:href="#CMSS17-6d" transform="translate(198.34486 0) scale(0.996264)"/>
      <use xlink:href="#CMSS17-65" transform="translate(272.574115 0) scale(0.996264)"/>
      <use xlink:href="#CMSS17-74" transform="translate(314.212937 0) scale(0.996264)"/>
      <use xlink:href="#CMSS17-69" transform="translate(348.044504 0) scale(0.996264)"/>
      <use xlink:href="#CMSS17-63" transform="translate(370.225227 0) scale(0.996264)"/>
      <use xlink:href="#CMSS17-49" transform="translate(443.093161 0) scale(0.996264)"/>
      <use xlink:href="#CMSS17-6e" transform="translate(468.877087 0) scale(0.996264)"/>
      <use xlink:href="#CMSS17-74" transform="translate(517.08203 0) scale(0.996264)"/>
      <use xlink:href="#CMSS17-65" transform="translate(550.913597 0) scale(0.996264)"/>
      <use xlink:href="#CMSS17-6e" transform="translate(592.552419 0) scale(0.996264)"/>
      <use xlink:href="#CMSS17-73" transform="translate(640.757362 0) scale(0.996264)"/>
      <use xlink:href="#CMSS17-69" transform="translate(676.670904 0) scale(0.996264)"/>
      <use xlink:href="#CMSS17-74" transform="translate(698.851627 0) scale(0.996264)"/>
      <use xlink:href="#CMSS17-79" transform="translate(730.08074 0) scale(0.996264)"/>
      <use xlink:href="#CMSS17-28" transform="translate(804.309994 0) scale(0.996264)"/>
      <use xlink:href="#CMSS17-46" transform="translate(840.743908 0) scale(0.996264)"/>
      <use xlink:href="#CMSS17-4c" transform="translate(894.033468 0) scale(0.996264)"/>
      <use xlink:href="#CMSS17-4f" transform="translate(944.720573 0) scale(0.996264)"/>
      <use xlink:href="#CMSS17-50" transform="translate(1013.744828 0) scale(0.996264)"/>
      <use xlink:href="#CMSS17-2f" transform="translate(1073.480415 0) scale(0.996264)"/>
      <use xlink:href="#CMSS17-62" transform="translate(1120.324038 0) scale(0.996264)"/>
      <use xlink:href="#CMSS17-79" transform="translate(1165.926527 0) scale(0.996264)"/>
      <use xlink:href="#CMSS17-74" transform="translate(1208.926669 0) scale(0.996264)"/>
      <use xlink:href="#CMSS17-65" transform="translate(1242.758236 0) scale(0.996264)"/>
      <use xlink:href="#CMSS17-29" transform="translate(1284.397058 0) scale(0.996264)"/>
     </g>
    </g>
   </g>
   <g id="matplotlib.axis_2">
    <g id="ytick_1">
     <g id="line2d_46">
      <path d="M 49.667786 167.887308 
L 421.2 167.887308 
" clip-path="url(#p8fa83b7038)" style="fill: none; stroke: #b0b0b0; stroke-width: 0.8; stroke-linecap: square"/>
     </g>
     <g id="line2d_47">
      <defs>
       <path id="m1c1a994a38" d="M 0 0 
L -3.5 0 
" style="stroke: #000000; stroke-width: 0.8"/>
      </defs>
      <g>
       <use xlink:href="#m1c1a994a38" x="49.667786" y="167.887308" style="stroke: #000000; stroke-width: 0.8"/>
      </g>
     </g>
     <g id="text_7">
      <!-- $\mathdefault{10^{11}}$ -->
      <g transform="translate(24.76264 171.346557) scale(0.1 -0.1)">
       <use xlink:href="#CMR17-31" transform="scale(0.996264)"/>
       <use xlink:href="#CMR17-30" transform="translate(45.690477 0) scale(0.996264)"/>
       <use xlink:href="#CMR17-31" transform="translate(91.380954 36.153639) scale(0.697382)"/>
       <use xlink:href="#CMR17-31" transform="translate(123.364136 36.153639) scale(0.697382)"/>
      </g>
     </g>
    </g>
    <g id="ytick_2">
     <g id="line2d_48">
      <path d="M 49.667786 82.93044 
L 421.2 82.93044 
" clip-path="url(#p8fa83b7038)" style="fill: none; stroke: #b0b0b0; stroke-width: 0.8; stroke-linecap: square"/>
     </g>
     <g id="line2d_49">
      <g>
       <use xlink:href="#m1c1a994a38" x="49.667786" y="82.93044" style="stroke: #000000; stroke-width: 0.8"/>
      </g>
     </g>
     <g id="text_8">
      <!-- $\mathdefault{10^{12}}$ -->
      <g transform="translate(24.76264 86.389689) scale(0.1 -0.1)">
       <use xlink:href="#CMR17-31" transform="scale(0.996264)"/>
       <use xlink:href="#CMR17-30" transform="translate(45.690477 0) scale(0.996264)"/>
       <use xlink:href="#CMR17-31" transform="translate(91.380954 36.153639) scale(0.697382)"/>
       <use xlink:href="#CMR17-32" transform="translate(123.364136 36.153639) scale(0.697382)"/>
      </g>
     </g>
    </g>
    <g id="ytick_3">
     <g id="line2d_50">
      <defs>
       <path id="md0baade023" d="M 0 0 
L -2 0 
" style="stroke: #000000; stroke-width: 0.6"/>
      </defs>
      <g>
       <use xlink:href="#md0baade023" x="49.667786" y="227.26961" style="stroke: #000000; stroke-width: 0.6"/>
      </g>
     </g>
    </g>
    <g id="ytick_4">
     <g id="line2d_51">
      <g>
       <use xlink:href="#md0baade023" x="49.667786" y="212.309448" style="stroke: #000000; stroke-width: 0.6"/>
      </g>
     </g>
    </g>
    <g id="ytick_5">
     <g id="line2d_52">
      <g>
       <use xlink:href="#md0baade023" x="49.667786" y="201.695045" style="stroke: #000000; stroke-width: 0.6"/>
      </g>
     </g>
    </g>
    <g id="ytick_6">
     <g id="line2d_53">
      <g>
       <use xlink:href="#md0baade023" x="49.667786" y="193.461873" style="stroke: #000000; stroke-width: 0.6"/>
      </g>
     </g>
    </g>
    <g id="ytick_7">
     <g id="line2d_54">
      <g>
       <use xlink:href="#md0baade023" x="49.667786" y="186.734883" style="stroke: #000000; stroke-width: 0.6"/>
      </g>
     </g>
    </g>
    <g id="ytick_8">
     <g id="line2d_55">
      <g>
       <use xlink:href="#md0baade023" x="49.667786" y="181.047293" style="stroke: #000000; stroke-width: 0.6"/>
      </g>
     </g>
    </g>
    <g id="ytick_9">
     <g id="line2d_56">
      <g>
       <use xlink:href="#md0baade023" x="49.667786" y="176.120479" style="stroke: #000000; stroke-width: 0.6"/>
      </g>
     </g>
    </g>
    <g id="ytick_10">
     <g id="line2d_57">
      <g>
       <use xlink:href="#md0baade023" x="49.667786" y="171.774721" style="stroke: #000000; stroke-width: 0.6"/>
      </g>
     </g>
    </g>
    <g id="ytick_11">
     <g id="line2d_58">
      <g>
       <use xlink:href="#md0baade023" x="49.667786" y="142.312742" style="stroke: #000000; stroke-width: 0.6"/>
      </g>
     </g>
    </g>
    <g id="ytick_12">
     <g id="line2d_59">
      <g>
       <use xlink:href="#md0baade023" x="49.667786" y="127.352581" style="stroke: #000000; stroke-width: 0.6"/>
      </g>
     </g>
    </g>
    <g id="ytick_13">
     <g id="line2d_60">
      <g>
       <use xlink:href="#md0baade023" x="49.667786" y="116.738177" style="stroke: #000000; stroke-width: 0.6"/>
      </g>
     </g>
    </g>
    <g id="ytick_14">
     <g id="line2d_61">
      <g>
       <use xlink:href="#md0baade023" x="49.667786" y="108.505006" style="stroke: #000000; stroke-width: 0.6"/>
      </g>
     </g>
    </g>
    <g id="ytick_15">
     <g id="line2d_62">
      <g>
       <use xlink:href="#md0baade023" x="49.667786" y="101.778015" style="stroke: #000000; stroke-width: 0.6"/>
      </g>
     </g>
    </g>
    <g id="ytick_16">
     <g id="line2d_63">
      <g>
       <use xlink:href="#md0baade023" x="49.667786" y="96.090425" style="stroke: #000000; stroke-width: 0.6"/>
      </g>
     </g>
    </g>
    <g id="ytick_17">
     <g id="line2d_64">
      <g>
       <use xlink:href="#md0baade023" x="49.667786" y="91.163611" style="stroke: #000000; stroke-width: 0.6"/>
      </g>
     </g>
    </g>
    <g id="ytick_18">
     <g id="line2d_65">
      <g>
       <use xlink:href="#md0baade023" x="49.667786" y="86.817853" style="stroke: #000000; stroke-width: 0.6"/>
      </g>
     </g>
    </g>
    <g id="ytick_19">
     <g id="line2d_66">
      <g>
       <use xlink:href="#md0baade023" x="49.667786" y="57.355875" style="stroke: #000000; stroke-width: 0.6"/>
      </g>
     </g>
    </g>
    <g id="ytick_20">
     <g id="line2d_67">
      <g>
       <use xlink:href="#md0baade023" x="49.667786" y="42.395713" style="stroke: #000000; stroke-width: 0.6"/>
      </g>
     </g>
    </g>
    <g id="ytick_21">
     <g id="line2d_68">
      <g>
       <use xlink:href="#md0baade023" x="49.667786" y="31.781309" style="stroke: #000000; stroke-width: 0.6"/>
      </g>
     </g>
    </g>
    <g id="ytick_22">
     <g id="line2d_69">
      <g>
       <use xlink:href="#md0baade023" x="49.667786" y="23.548138" style="stroke: #000000; stroke-width: 0.6"/>
      </g>
     </g>
    </g>
    <g id="ytick_23">
     <g id="line2d_70">
      <g>
       <use xlink:href="#md0baade023" x="49.667786" y="16.821147" style="stroke: #000000; stroke-width: 0.6"/>
      </g>
     </g>
    </g>
    <g id="ytick_24">
     <g id="line2d_71">
      <g>
       <use xlink:href="#md0baade023" x="49.667786" y="11.133558" style="stroke: #000000; stroke-width: 0.6"/>
      </g>
     </g>
    </g>
    <g id="text_9">
     <!-- Performance (FLOP/s) -->
     <g transform="translate(18.27198 177.299046) rotate(-90) scale(0.1 -0.1)">
      <defs>
       <path id="CMSS17-66" d="M 1075 2380 
L 1722 2380 
L 1722 2752 
L 1062 2752 
L 1062 3563 
C 1062 4013 1408 4089 1606 4089 
C 1670 4089 1850 4089 2080 4007 
L 2080 4428 
C 1933 4460 1754 4480 1613 4480 
C 1018 4480 602 3994 602 3366 
L 602 2752 
L 160 2752 
L 160 2380 
L 602 2380 
L 602 0 
L 1075 0 
L 1075 2380 
z
" transform="scale(0.015625)"/>
       <path id="CMSS17-6f" d="M 2829 1356 
C 2829 2175 2221 2816 1504 2816 
C 768 2816 173 2156 173 1356 
C 173 544 787 -64 1498 -64 
C 2227 -64 2829 563 2829 1356 
z
M 1504 339 
C 1050 339 659 710 659 1407 
C 659 2150 1114 2425 1498 2425 
C 1914 2425 2342 2124 2342 1407 
C 2342 684 1926 339 1504 339 
z
" transform="scale(0.015625)"/>
       <path id="CMSS17-61" d="M 2406 1789 
C 2406 2399 1978 2816 1402 2816 
C 1120 2816 813 2764 461 2559 
L 499 2133 
C 659 2250 934 2438 1395 2438 
C 1722 2438 1920 2185 1920 1782 
L 1920 1536 
C 896 1504 256 1209 256 711 
C 256 452 416 -64 947 -64 
C 1043 -64 1562 -52 1933 224 
L 1933 -13 
L 2406 -13 
L 2406 1789 
z
M 1920 824 
C 1920 711 1920 559 1728 446 
C 1562 339 1350 326 1261 326 
C 941 326 723 503 723 723 
C 723 1165 1722 1209 1920 1216 
L 1920 824 
z
" transform="scale(0.015625)"/>
      </defs>
      <use xlink:href="#CMSS17-50" transform="scale(0.996264)"/>
      <use xlink:href="#CMSS17-65" transform="translate(57.133132 0) scale(0.996264)"/>
      <use xlink:href="#CMSS17-72" transform="translate(98.771954 0) scale(0.996264)"/>
      <use xlink:href="#CMSS17-66" transform="translate(130.681727 0) scale(0.996264)"/>
      <use xlink:href="#CMSS17-6f" transform="translate(159.308386 0) scale(0.996264)"/>
      <use xlink:href="#CMSS17-72" transform="translate(203.549555 0) scale(0.996264)"/>
      <use xlink:href="#CMSS17-6d" transform="translate(235.459328 0) scale(0.996264)"/>
      <use xlink:href="#CMSS17-61" transform="translate(309.688582 0) scale(0.996264)"/>
      <use xlink:href="#CMSS17-6e" transform="translate(354.610503 0) scale(0.996264)"/>
      <use xlink:href="#CMSS17-63" transform="translate(402.815446 0) scale(0.996264)"/>
      <use xlink:href="#CMSS17-65" transform="translate(444.454268 0) scale(0.996264)"/>
      <use xlink:href="#CMSS17-28" transform="translate(517.322203 0) scale(0.996264)"/>
      <use xlink:href="#CMSS17-46" transform="translate(553.756117 0) scale(0.996264)"/>
      <use xlink:href="#CMSS17-4c" transform="translate(607.045676 0) scale(0.996264)"/>
      <use xlink:href="#CMSS17-4f" transform="translate(657.732782 0) scale(0.996264)"/>
      <use xlink:href="#CMSS17-50" transform="translate(726.757037 0) scale(0.996264)"/>
      <use xlink:href="#CMSS17-2f" transform="translate(786.492623 0) scale(0.996264)"/>
      <use xlink:href="#CMSS17-73" transform="translate(833.336247 0) scale(0.996264)"/>
      <use xlink:href="#CMSS17-29" transform="translate(869.249789 0) scale(0.996264)"/>
     </g>
    </g>
   </g>
   <g id="line2d_72">
    <path d="M 66.555614 236.62797 
L 280.311515 21.553713 
L 404.312172 21.553713 
" clip-path="url(#p8fa83b7038)" style="fill: none; stroke: #000000; stroke-width: 1.5; stroke-linecap: square"/>
   </g>
   <g id="line2d_73">
    <path d="M 280.311515 247.381683 
L 280.311515 10.8 
" clip-path="url(#p8fa83b7038)" style="fill: none; stroke-dasharray: 5.55,2.4; stroke-dashoffset: 0; stroke: #000000; stroke-opacity: 0.5; stroke-width: 1.5"/>
   </g>
   <g id="patch_3">
    <path d="M 49.667786 247.381683 
L 49.667786 10.8 
" style="fill: none; stroke: #000000; stroke-width: 0.8; stroke-linejoin: miter; stroke-linecap: square"/>
   </g>
   <g id="patch_4">
    <path d="M 421.2 247.381683 
L 421.2 10.8 
" style="fill: none; stroke: #000000; stroke-width: 0.8; stroke-linejoin: miter; stroke-linecap: square"/>
   </g>
   <g id="patch_5">
    <path d="M 49.667786 247.381683 
L 421.2 247.381683 
" style="fill: none; stroke: #000000; stroke-width: 0.8; stroke-linejoin: miter; stroke-linecap: square"/>
   </g>
   <g id="patch_6">
    <path d="M 49.667786 10.8 
L 421.2 10.8 
" style="fill: none; stroke: #000000; stroke-width: 0.8; stroke-linejoin: miter; stroke-linecap: square"/>
   </g>
   <g id="text_10">
    <!-- Memory bound -->
    <g transform="translate(191.282462 152.927146) scale(0.1 -0.1)">
     <defs>
      <path id="CMSS17-4d" d="M 3194 2373 
L 2886 1476 
C 2835 1311 2662 795 2624 592 
L 2618 592 
C 2598 719 2560 853 2458 1177 
C 2400 1368 2336 1565 2272 1743 
L 1325 4416 
L 576 4416 
L 576 0 
L 1075 0 
L 1075 3899 
L 1082 3899 
C 1082 3893 1139 3613 1530 2500 
L 2374 102 
L 2848 102 
L 3610 2233 
C 3661 2379 3821 2843 3891 3066 
C 3955 3257 4115 3728 4154 3912 
L 4160 3912 
L 4160 0 
L 4666 0 
L 4666 4416 
L 3923 4416 
L 3194 2373 
z
" transform="scale(0.015625)"/>
      <path id="CMSS17-75" d="M 2618 2752 
L 2131 2752 
L 2131 976 
C 2131 500 1786 307 1421 307 
C 998 307 960 448 960 712 
L 960 2752 
L 474 2752 
L 474 680 
C 474 179 646 -64 1088 -64 
C 1306 -64 1798 -13 2144 307 
L 2144 -13 
L 2618 -13 
L 2618 2752 
z
" transform="scale(0.015625)"/>
      <path id="CMSS17-64" d="M 2611 4416 
L 2138 4416 
L 2138 2495 
C 1939 2662 1613 2816 1254 2816 
C 672 2816 211 2179 211 1375 
C 211 572 666 -64 1235 -64 
C 1677 -64 1971 172 2125 307 
L 2125 -13 
L 2611 -13 
L 2611 4416 
z
M 2125 851 
C 2125 760 2125 663 1926 488 
C 1798 378 1645 326 1498 326 
C 1152 326 698 585 698 1369 
C 698 2185 1210 2425 1562 2425 
C 1798 2425 1990 2308 2125 2114 
L 2125 851 
z
" transform="scale(0.015625)"/>
     </defs>
     <use xlink:href="#CMSS17-4d" transform="scale(0.996264)"/>
     <use xlink:href="#CMSS17-65" transform="translate(81.67603 0) scale(0.996264)"/>
     <use xlink:href="#CMSS17-6d" transform="translate(123.314852 0) scale(0.996264)"/>
     <use xlink:href="#CMSS17-6f" transform="translate(197.544106 0) scale(0.996264)"/>
     <use xlink:href="#CMSS17-72" transform="translate(241.785276 0) scale(0.996264)"/>
     <use xlink:href="#CMSS17-79" transform="translate(273.695049 0) scale(0.996264)"/>
     <use xlink:href="#CMSS17-62" transform="translate(347.924303 0) scale(0.996264)"/>
     <use xlink:href="#CMSS17-6f" transform="translate(398.731685 0) scale(0.996264)"/>
     <use xlink:href="#CMSS17-75" transform="translate(445.575308 0) scale(0.996264)"/>
     <use xlink:href="#CMSS17-6e" transform="translate(493.780252 0) scale(0.996264)"/>
     <use xlink:href="#CMSS17-64" transform="translate(541.985195 0) scale(0.996264)"/>
    </g>
   </g>
   <g id="text_11">
    <!-- Compute bound -->
    <g transform="translate(311.690034 152.927146) scale(0.1 -0.1)">
     <defs>
      <path id="CMSS17-43" d="M 3501 705 
C 3072 416 2874 332 2355 332 
C 1459 332 934 1304 934 2191 
C 934 3137 1472 4070 2381 4070 
C 2790 4070 3059 3954 3386 3748 
L 3475 4255 
C 3168 4409 2778 4480 2387 4480 
C 1158 4480 397 3343 397 2191 
C 397 924 1299 -77 2323 -77 
C 2874 -77 3066 -32 3539 268 
L 3501 705 
z
" transform="scale(0.015625)"/>
      <path id="CMSS17-70" d="M 966 275 
C 1178 70 1466 -64 1773 -64 
C 2368 -64 2880 553 2880 1382 
C 2880 2147 2496 2816 1946 2816 
C 1626 2816 1242 2700 954 2470 
L 954 2764 
L 480 2764 
L 480 -1280 
L 966 -1280 
L 966 275 
z
M 966 2088 
C 1018 2166 1235 2412 1587 2412 
C 2035 2412 2394 1946 2394 1382 
C 2394 741 1958 326 1530 326 
C 1402 326 1267 358 1139 468 
C 966 624 966 721 966 812 
L 966 2088 
z
" transform="scale(0.015625)"/>
     </defs>
     <use xlink:href="#CMSS17-43" transform="scale(0.996264)"/>
     <use xlink:href="#CMSS17-6f" transform="translate(59.855772 0) scale(0.996264)"/>
     <use xlink:href="#CMSS17-6d" transform="translate(106.699395 0) scale(0.996264)"/>
     <use xlink:href="#CMSS17-70" transform="translate(180.92865 0) scale(0.996264)"/>
     <use xlink:href="#CMSS17-75" transform="translate(229.133593 0) scale(0.996264)"/>
     <use xlink:href="#CMSS17-74" transform="translate(277.338536 0) scale(0.996264)"/>
     <use xlink:href="#CMSS17-65" transform="translate(311.170102 0) scale(0.996264)"/>
     <use xlink:href="#CMSS17-62" transform="translate(384.038037 0) scale(0.996264)"/>
     <use xlink:href="#CMSS17-6f" transform="translate(434.845419 0) scale(0.996264)"/>
     <use xlink:href="#CMSS17-75" transform="translate(481.689043 0) scale(0.996264)"/>
     <use xlink:href="#CMSS17-6e" transform="translate(529.893986 0) scale(0.996264)"/>
     <use xlink:href="#CMSS17-64" transform="translate(578.098929 0) scale(0.996264)"/>
    </g>
   </g>
   <g id="text_12">
    <!-- Inaccessible -->
    <g transform="translate(125.57604 82.93044) scale(0.1 -0.1)">
     <defs>
      <path id="CMSS17-6c" d="M 947 4416 
L 474 4416 
L 474 0 
L 947 0 
L 947 4416 
z
" transform="scale(0.015625)"/>
     </defs>
     <use xlink:href="#CMSS17-49" transform="scale(0.996264)"/>
     <use xlink:href="#CMSS17-6e" transform="translate(25.783926 0) scale(0.996264)"/>
     <use xlink:href="#CMSS17-61" transform="translate(73.988869 0) scale(0.996264)"/>
     <use xlink:href="#CMSS17-63" transform="translate(118.910789 0) scale(0.996264)"/>
     <use xlink:href="#CMSS17-63" transform="translate(160.549611 0) scale(0.996264)"/>
     <use xlink:href="#CMSS17-65" transform="translate(202.188433 0) scale(0.996264)"/>
     <use xlink:href="#CMSS17-73" transform="translate(243.827255 0) scale(0.996264)"/>
     <use xlink:href="#CMSS17-73" transform="translate(279.740797 0) scale(0.996264)"/>
     <use xlink:href="#CMSS17-69" transform="translate(315.654339 0) scale(0.996264)"/>
     <use xlink:href="#CMSS17-62" transform="translate(337.835062 0) scale(0.996264)"/>
     <use xlink:href="#CMSS17-6c" transform="translate(386.040006 0) scale(0.996264)"/>
     <use xlink:href="#CMSS17-65" transform="translate(408.220729 0) scale(0.996264)"/>
    </g>
   </g>
   <g id="legend_1">
    <g id="patch_7">
     <path d="M 133.042871 242.381683 
L 414.2 242.381683 
Q 416.2 242.381683 416.2 240.381683 
L 416.2 171.695792 
Q 416.2 169.695792 414.2 169.695792 
L 133.042871 169.695792 
Q 131.042871 169.695792 131.042871 171.695792 
L 131.042871 240.381683 
Q 131.042871 242.381683 133.042871 242.381683 
z
" style="fill: #ffffff; opacity: 0.8; stroke: #cccccc; stroke-linejoin: miter"/>
    </g>
    <g id="line2d_74">
     <path d="M 135.042871 177.195792 
L 145.042871 177.195792 
L 155.042871 177.195792 
" style="fill: none; stroke: #000000; stroke-width: 1.5; stroke-linecap: square"/>
    </g>
    <g id="text_13">
     <!-- hardware limit -->
     <g transform="translate(163.042871 180.695792) scale(0.1 -0.1)">
      <defs>
       <path id="CMSS17-77" d="M 4013 2752 
L 3526 2752 
L 3187 1600 
C 3117 1356 2918 684 2893 371 
L 2886 371 
C 2874 563 2765 1024 2586 1632 
L 2259 2752 
L 1818 2752 
L 1498 1657 
C 1338 1100 1216 627 1203 371 
L 1197 371 
C 1171 748 909 1632 870 1772 
L 582 2752 
L 83 2752 
L 915 0 
L 1402 0 
C 1734 1100 1990 1952 2010 2380 
C 2022 2169 2131 1715 2195 1491 
L 2618 0 
L 3181 0 
L 4013 2752 
z
" transform="scale(0.015625)"/>
      </defs>
      <use xlink:href="#CMSS17-68" transform="scale(0.996264)"/>
      <use xlink:href="#CMSS17-61" transform="translate(48.204943 0) scale(0.996264)"/>
      <use xlink:href="#CMSS17-72" transform="translate(90.52441 0) scale(0.996264)"/>
      <use xlink:href="#CMSS17-64" transform="translate(122.434182 0) scale(0.996264)"/>
      <use xlink:href="#CMSS17-77" transform="translate(170.639125 0) scale(0.996264)"/>
      <use xlink:href="#CMSS17-61" transform="translate(231.856217 0) scale(0.996264)"/>
      <use xlink:href="#CMSS17-72" transform="translate(274.175683 0) scale(0.996264)"/>
      <use xlink:href="#CMSS17-65" transform="translate(306.085456 0) scale(0.996264)"/>
      <use xlink:href="#CMSS17-6c" transform="translate(378.953391 0) scale(0.996264)"/>
      <use xlink:href="#CMSS17-69" transform="translate(401.134114 0) scale(0.996264)"/>
      <use xlink:href="#CMSS17-6d" transform="translate(423.314837 0) scale(0.996264)"/>
      <use xlink:href="#CMSS17-69" transform="translate(497.544091 0) scale(0.996264)"/>
      <use xlink:href="#CMSS17-74" transform="translate(519.724814 0) scale(0.996264)"/>
     </g>
    </g>
    <g id="PathCollection_10">
     <path d="M 145.042871 195.262732 
C 145.906044 195.262732 146.733979 194.91979 147.344335 194.309434 
C 147.95469 193.699079 148.297633 192.871143 148.297633 192.00797 
C 148.297633 191.144797 147.95469 190.316861 147.344335 189.706506 
C 146.733979 189.09615 145.906044 188.753208 145.042871 188.753208 
C 144.179698 188.753208 143.351762 189.09615 142.741407 189.706506 
C 142.131051 190.316861 141.788109 191.144797 141.788109 192.00797 
C 141.788109 192.871143 142.131051 193.699079 142.741407 194.309434 
C 143.351762 194.91979 144.179698 195.262732 145.042871 195.262732 
z
" style="fill: #1f77b4"/>
    </g>
    <g id="text_14">
     <!-- Ibis ausmdv -->
     <g transform="translate(163.042871 194.63297) scale(0.1 -0.1)">
      <defs>
       <path id="CMSS17-76" d="M 2675 2752 
L 2176 2752 
L 1747 1555 
C 1613 1164 1421 627 1389 352 
L 1382 352 
C 1370 467 1318 633 1286 748 
C 1248 889 1197 1056 1158 1171 
L 595 2752 
L 83 2752 
L 1094 0 
L 1664 0 
L 2675 2752 
z
" transform="scale(0.015625)"/>
      </defs>
      <use xlink:href="#CMSS17-49" transform="scale(0.996264)"/>
      <use xlink:href="#CMSS17-62" transform="translate(25.783926 0) scale(0.996264)"/>
      <use xlink:href="#CMSS17-69" transform="translate(73.988869 0) scale(0.996264)"/>
      <use xlink:href="#CMSS17-73" transform="translate(96.169592 0) scale(0.996264)"/>
      <use xlink:href="#CMSS17-61" transform="translate(163.312246 0) scale(0.996264)"/>
      <use xlink:href="#CMSS17-75" transform="translate(208.234167 0) scale(0.996264)"/>
      <use xlink:href="#CMSS17-73" transform="translate(256.43911 0) scale(0.996264)"/>
      <use xlink:href="#CMSS17-6d" transform="translate(292.352652 0) scale(0.996264)"/>
      <use xlink:href="#CMSS17-64" transform="translate(366.581907 0) scale(0.996264)"/>
      <use xlink:href="#CMSS17-76" transform="translate(414.78685 0) scale(0.996264)"/>
     </g>
    </g>
    <g id="PathCollection_11">
     <path d="M 145.042871 208.214444 
C 145.644695 208.214444 146.221951 207.975336 146.647505 207.549782 
C 147.073059 207.124228 147.312166 206.546972 147.312166 205.945148 
C 147.312166 205.343324 147.073059 204.766068 146.647505 204.340514 
C 146.221951 203.91496 145.644695 203.675853 145.042871 203.675853 
C 144.441047 203.675853 143.86379 203.91496 143.438237 204.340514 
C 143.012683 204.766068 142.773575 205.343324 142.773575 205.945148 
C 142.773575 206.546972 143.012683 207.124228 143.438237 207.549782 
C 143.86379 207.975336 144.441047 208.214444 145.042871 208.214444 
z
" style="fill: #ff7f0e"/>
    </g>
    <g id="text_15">
     <!-- Ibis gradients -->
     <g transform="translate(163.042871 208.570148) scale(0.1 -0.1)">
      <defs>
       <path id="CMSS17-67" d="M 2848 2816 
C 2483 2809 2170 2739 1914 2617 
C 1702 2783 1485 2816 1338 2816 
C 781 2816 358 2356 358 1824 
C 358 1481 550 1222 563 1209 
C 448 1049 384 876 384 684 
C 384 460 474 300 544 211 
C 211 6 166 -308 166 -429 
C 166 -896 749 -1280 1498 -1280 
C 2253 -1280 2835 -896 2835 -423 
C 2835 460 1856 467 1587 467 
L 1069 467 
C 973 467 717 467 717 793 
C 717 921 774 1004 781 1011 
C 877 940 1075 832 1338 832 
C 1869 832 2310 1279 2310 1824 
C 2310 2128 2170 2349 2112 2425 
L 2131 2425 
C 2150 2425 2419 2444 2515 2444 
C 2720 2444 2739 2438 2918 2419 
L 2848 2816 
z
M 1338 1184 
C 1120 1184 813 1317 813 1824 
C 813 2375 1165 2463 1331 2463 
C 1549 2463 1856 2330 1856 1824 
C 1856 1272 1504 1184 1338 1184 
z
M 1581 0 
C 1734 0 2381 0 2381 -436 
C 2381 -711 1984 -928 1504 -928 
C 1018 -928 621 -717 621 -429 
C 621 -397 621 0 1062 0 
L 1581 0 
z
" transform="scale(0.015625)"/>
      </defs>
      <use xlink:href="#CMSS17-49" transform="scale(0.996264)"/>
      <use xlink:href="#CMSS17-62" transform="translate(25.783926 0) scale(0.996264)"/>
      <use xlink:href="#CMSS17-69" transform="translate(73.988869 0) scale(0.996264)"/>
      <use xlink:href="#CMSS17-73" transform="translate(96.169592 0) scale(0.996264)"/>
      <use xlink:href="#CMSS17-67" transform="translate(163.312246 0) scale(0.996264)"/>
      <use xlink:href="#CMSS17-72" transform="translate(210.15587 0) scale(0.996264)"/>
      <use xlink:href="#CMSS17-61" transform="translate(242.065643 0) scale(0.996264)"/>
      <use xlink:href="#CMSS17-64" transform="translate(286.987563 0) scale(0.996264)"/>
      <use xlink:href="#CMSS17-69" transform="translate(335.192506 0) scale(0.996264)"/>
      <use xlink:href="#CMSS17-65" transform="translate(357.373229 0) scale(0.996264)"/>
      <use xlink:href="#CMSS17-6e" transform="translate(399.012051 0) scale(0.996264)"/>
      <use xlink:href="#CMSS17-74" transform="translate(447.216994 0) scale(0.996264)"/>
      <use xlink:href="#CMSS17-73" transform="translate(481.048561 0) scale(0.996264)"/>
     </g>
    </g>
    <g id="PathCollection_12">
     <path d="M 145.042871 223.996148 
C 146.133869 223.996148 147.18033 223.56269 147.951782 222.791238 
C 148.723234 222.019785 149.156692 220.973325 149.156692 219.882327 
C 149.156692 218.791328 148.723234 217.744868 147.951782 216.973415 
C 147.18033 216.201963 146.133869 215.768505 145.042871 215.768505 
C 143.951872 215.768505 142.905412 216.201963 142.13396 216.973415 
C 141.362507 217.744868 140.929049 218.791328 140.929049 219.882327 
C 140.929049 220.973325 141.362507 222.019785 142.13396 222.791238 
C 142.905412 223.56269 143.951872 223.996148 145.042871 223.996148 
z
" style="fill: #2ca02c"/>
    </g>
    <g id="text_16">
     <!-- Ibis reconstruction -->
     <g transform="translate(163.042871 222.507327) scale(0.1 -0.1)">
      <use xlink:href="#CMSS17-49" transform="scale(0.996264)"/>
      <use xlink:href="#CMSS17-62" transform="translate(25.783926 0) scale(0.996264)"/>
      <use xlink:href="#CMSS17-69" transform="translate(73.988869 0) scale(0.996264)"/>
      <use xlink:href="#CMSS17-73" transform="translate(96.169592 0) scale(0.996264)"/>
      <use xlink:href="#CMSS17-72" transform="translate(163.312246 0) scale(0.996264)"/>
      <use xlink:href="#CMSS17-65" transform="translate(195.222019 0) scale(0.996264)"/>
      <use xlink:href="#CMSS17-63" transform="translate(236.860841 0) scale(0.996264)"/>
      <use xlink:href="#CMSS17-6f" transform="translate(278.499663 0) scale(0.996264)"/>
      <use xlink:href="#CMSS17-6e" transform="translate(325.343287 0) scale(0.996264)"/>
      <use xlink:href="#CMSS17-73" transform="translate(373.54823 0) scale(0.996264)"/>
      <use xlink:href="#CMSS17-74" transform="translate(409.461772 0) scale(0.996264)"/>
      <use xlink:href="#CMSS17-72" transform="translate(443.293338 0) scale(0.996264)"/>
      <use xlink:href="#CMSS17-75" transform="translate(475.203111 0) scale(0.996264)"/>
      <use xlink:href="#CMSS17-63" transform="translate(523.408054 0) scale(0.996264)"/>
      <use xlink:href="#CMSS17-74" transform="translate(565.046876 0) scale(0.996264)"/>
      <use xlink:href="#CMSS17-69" transform="translate(598.878443 0) scale(0.996264)"/>
      <use xlink:href="#CMSS17-6f" transform="translate(621.059166 0) scale(0.996264)"/>
      <use xlink:href="#CMSS17-6e" transform="translate(667.902789 0) scale(0.996264)"/>
     </g>
    </g>
    <g id="PathCollection_13">
     <path d="M 145.042871 236.513954 
C 145.757447 236.513954 146.442853 236.23005 146.948134 235.724768 
C 147.453416 235.219487 147.73732 234.534081 147.73732 233.819505 
C 147.73732 233.104928 147.453416 232.419523 146.948134 231.914241 
C 146.442853 231.408959 145.757447 231.125055 145.042871 231.125055 
C 144.328294 231.125055 143.642889 231.408959 143.137607 231.914241 
C 142.632325 232.419523 142.348421 233.104928 142.348421 233.819505 
C 142.348421 234.534081 142.632325 235.219487 143.137607 235.724768 
C 143.642889 236.23005 144.328294 236.513954 145.042871 236.513954 
z
" style="fill: #d62728"/>
    </g>
    <g id="text_17">
     <!-- Ibis limiter -->
     <g transform="translate(163.042871 236.444505) scale(0.1 -0.1)">
      <use xlink:href="#CMSS17-49" transform="scale(0.996264)"/>
      <use xlink:href="#CMSS17-62" transform="translate(25.783926 0) scale(0.996264)"/>
      <use xlink:href="#CMSS17-69" transform="translate(73.988869 0) scale(0.996264)"/>
      <use xlink:href="#CMSS17-73" transform="translate(96.169592 0) scale(0.996264)"/>
      <use xlink:href="#CMSS17-6c" transform="translate(163.312246 0) scale(0.996264)"/>
      <use xlink:href="#CMSS17-69" transform="translate(185.492969 0) scale(0.996264)"/>
      <use xlink:href="#CMSS17-6d" transform="translate(207.673693 0) scale(0.996264)"/>
      <use xlink:href="#CMSS17-69" transform="translate(281.902947 0) scale(0.996264)"/>
      <use xlink:href="#CMSS17-74" transform="translate(304.08367 0) scale(0.996264)"/>
      <use xlink:href="#CMSS17-65" transform="translate(337.915237 0) scale(0.996264)"/>
      <use xlink:href="#CMSS17-72" transform="translate(379.554059 0) scale(0.996264)"/>
     </g>
    </g>
    <g id="PathCollection_14">
     <path d="M 269.367858 183.072226 
C 270.694254 183.072226 271.966503 182.545244 272.904406 181.60734 
C 273.84231 180.669436 274.369293 179.397188 274.369293 178.070792 
C 274.369293 176.744396 273.84231 175.472147 272.904406 174.534243 
C 271.966503 173.59634 270.694254 173.069357 269.367858 173.069357 
C 268.041462 173.069357 266.769213 173.59634 265.83131 174.534243 
C 264.893406 175.472147 264.366423 176.744396 264.366423 178.070792 
C 264.366423 179.397188 264.893406 180.669436 265.83131 181.60734 
C 266.769213 182.545244 268.041462 183.072226 269.367858 183.072226 
z
" style="fill: #9467bd"/>
    </g>
    <g id="text_18">
     <!-- Ibis viscous_properties -->
     <g transform="translate(287.367858 180.695792) scale(0.1 -0.1)">
      <use xlink:href="#CMSS17-49" transform="scale(0.996264)"/>
      <use xlink:href="#CMSS17-62" transform="translate(25.783926 0) scale(0.996264)"/>
      <use xlink:href="#CMSS17-69" transform="translate(73.988869 0) scale(0.996264)"/>
      <use xlink:href="#CMSS17-73" transform="translate(96.169592 0) scale(0.996264)"/>
      <use xlink:href="#CMSS17-76" transform="translate(163.312246 0) scale(0.996264)"/>
      <use xlink:href="#CMSS17-69" transform="translate(206.312388 0) scale(0.996264)"/>
      <use xlink:href="#CMSS17-73" transform="translate(228.493111 0) scale(0.996264)"/>
      <use xlink:href="#CMSS17-63" transform="translate(264.406653 0) scale(0.996264)"/>
      <use xlink:href="#CMSS17-6f" transform="translate(306.045475 0) scale(0.996264)"/>
      <use xlink:href="#CMSS17-75" transform="translate(352.889099 0) scale(0.996264)"/>
      <use xlink:href="#CMSS17-73" transform="translate(401.094042 0) scale(0.996264)"/>
      <use xlink:href="#CMSS17-70" transform="translate(470.735079 0) scale(0.996264)"/>
      <use xlink:href="#CMSS17-72" transform="translate(516.337568 0) scale(0.996264)"/>
      <use xlink:href="#CMSS17-6f" transform="translate(548.247341 0) scale(0.996264)"/>
      <use xlink:href="#CMSS17-70" transform="translate(595.090964 0) scale(0.996264)"/>
      <use xlink:href="#CMSS17-65" transform="translate(645.898346 0) scale(0.996264)"/>
      <use xlink:href="#CMSS17-72" transform="translate(687.537168 0) scale(0.996264)"/>
      <use xlink:href="#CMSS17-74" transform="translate(719.446941 0) scale(0.996264)"/>
      <use xlink:href="#CMSS17-69" transform="translate(753.278508 0) scale(0.996264)"/>
      <use xlink:href="#CMSS17-65" transform="translate(775.459231 0) scale(0.996264)"/>
      <use xlink:href="#CMSS17-73" transform="translate(817.098053 0) scale(0.996264)"/>
      <path d="M 442.628595 0 
L 470.735079 0 
L 470.735079 0.3985 
L 442.628595 0.3985 
L 442.628595 0 
z
"/>
     </g>
    </g>
    <g id="PathCollection_15">
     <path d="M 269.367858 194.484047 
C 270.024521 194.484047 270.654378 194.223152 271.118709 193.758821 
C 271.58304 193.294489 271.843935 192.664633 271.843935 192.00797 
C 271.843935 191.351307 271.58304 190.72145 271.118709 190.257119 
C 270.654378 189.792788 270.024521 189.531893 269.367858 189.531893 
C 268.711195 189.531893 268.081338 189.792788 267.617007 190.257119 
C 267.152676 190.72145 266.891781 191.351307 266.891781 192.00797 
C 266.891781 192.664633 267.152676 193.294489 267.617007 193.758821 
C 268.081338 194.223152 268.711195 194.484047 269.367858 194.484047 
z
" style="fill: #8c564b"/>
    </g>
    <g id="text_19">
     <!-- Ibis transform_to_local_frame -->
     <g transform="translate(287.367858 194.63297) scale(0.1 -0.1)">
      <use xlink:href="#CMSS17-49" transform="scale(0.996264)"/>
      <use xlink:href="#CMSS17-62" transform="translate(25.783926 0) scale(0.996264)"/>
      <use xlink:href="#CMSS17-69" transform="translate(73.988869 0) scale(0.996264)"/>
      <use xlink:href="#CMSS17-73" transform="translate(96.169592 0) scale(0.996264)"/>
      <use xlink:href="#CMSS17-74" transform="translate(163.312246 0) scale(0.996264)"/>
      <use xlink:href="#CMSS17-72" transform="translate(197.143813 0) scale(0.996264)"/>
      <use xlink:href="#CMSS17-61" transform="translate(229.053586 0) scale(0.996264)"/>
      <use xlink:href="#CMSS17-6e" transform="translate(273.975506 0) scale(0.996264)"/>
      <use xlink:href="#CMSS17-73" transform="translate(322.180449 0) scale(0.996264)"/>
      <use xlink:href="#CMSS17-66" transform="translate(358.093991 0) scale(0.996264)"/>
      <use xlink:href="#CMSS17-6f" transform="translate(386.72065 0) scale(0.996264)"/>
      <use xlink:href="#CMSS17-72" transform="translate(430.96182 0) scale(0.996264)"/>
      <use xlink:href="#CMSS17-6d" transform="translate(462.871592 0) scale(0.996264)"/>
      <use xlink:href="#CMSS17-74" transform="translate(570.828342 0) scale(0.996264)"/>
      <use xlink:href="#CMSS17-6f" transform="translate(604.659909 0) scale(0.996264)"/>
      <use xlink:href="#CMSS17-6c" transform="translate(685.231028 0) scale(0.996264)"/>
      <use xlink:href="#CMSS17-6f" transform="translate(707.411751 0) scale(0.996264)"/>
      <use xlink:href="#CMSS17-63" transform="translate(756.857813 0) scale(0.996264)"/>
      <use xlink:href="#CMSS17-61" transform="translate(798.496635 0) scale(0.996264)"/>
      <use xlink:href="#CMSS17-6c" transform="translate(843.418556 0) scale(0.996264)"/>
      <use xlink:href="#CMSS17-66" transform="translate(899.326774 0) scale(0.996264)"/>
      <use xlink:href="#CMSS17-72" transform="translate(927.953433 0) scale(0.996264)"/>
      <use xlink:href="#CMSS17-61" transform="translate(959.863205 0) scale(0.996264)"/>
      <use xlink:href="#CMSS17-6d" transform="translate(1004.785126 0) scale(0.996264)"/>
      <use xlink:href="#CMSS17-65" transform="translate(1079.01438 0) scale(0.996264)"/>
      <path d="M 542.721858 0 
L 570.828342 0 
L 570.828342 0.3985 
L 542.721858 0.3985 
L 542.721858 0 
z
"/>
      <path d="M 657.124543 0 
L 685.231028 0 
L 685.231028 0.3985 
L 657.124543 0.3985 
L 657.124543 0 
z
"/>
      <path d="M 871.22029 0 
L 899.326774 0 
L 899.326774 0.3985 
L 871.22029 0.3985 
L 871.22029 0 
z
"/>
     </g>
    </g>
    <g id="PathCollection_16">
     <path d="M 269.367858 208.447004 
C 270.031358 208.447004 270.667772 208.183393 271.136937 207.714227 
C 271.606102 207.245062 271.869714 206.608648 271.869714 205.945148 
C 271.869714 205.281648 271.606102 204.645234 271.136937 204.176069 
C 270.667772 203.706904 270.031358 203.443293 269.367858 203.443293 
C 268.704358 203.443293 268.067944 203.706904 267.598779 204.176069 
C 267.129614 204.645234 266.866002 205.281648 266.866002 205.945148 
C 266.866002 206.608648 267.129614 207.245062 267.598779 207.714227 
C 268.067944 208.183393 268.704358 208.447004 269.367858 208.447004 
z
" style="fill: #e377c2"/>
    </g>
    <g id="text_20">
     <!-- Ibis transform_to_global_frame -->
     <g transform="translate(287.367858 208.570148) scale(0.1 -0.1)">
      <use xlink:href="#CMSS17-49" transform="scale(0.996264)"/>
      <use xlink:href="#CMSS17-62" transform="translate(25.783926 0) scale(0.996264)"/>
      <use xlink:href="#CMSS17-69" transform="translate(73.988869 0) scale(0.996264)"/>
      <use xlink:href="#CMSS17-73" transform="translate(96.169592 0) scale(0.996264)"/>
      <use xlink:href="#CMSS17-74" transform="translate(163.312246 0) scale(0.996264)"/>
      <use xlink:href="#CMSS17-72" transform="translate(197.143813 0) scale(0.996264)"/>
      <use xlink:href="#CMSS17-61" transform="translate(229.053586 0) scale(0.996264)"/>
      <use xlink:href="#CMSS17-6e" transform="translate(273.975506 0) scale(0.996264)"/>
      <use xlink:href="#CMSS17-73" transform="translate(322.180449 0) scale(0.996264)"/>
      <use xlink:href="#CMSS17-66" transform="translate(358.093991 0) scale(0.996264)"/>
      <use xlink:href="#CMSS17-6f" transform="translate(386.72065 0) scale(0.996264)"/>
      <use xlink:href="#CMSS17-72" transform="translate(430.96182 0) scale(0.996264)"/>
      <use xlink:href="#CMSS17-6d" transform="translate(462.871592 0) scale(0.996264)"/>
      <use xlink:href="#CMSS17-74" transform="translate(570.828342 0) scale(0.996264)"/>
      <use xlink:href="#CMSS17-6f" transform="translate(604.659909 0) scale(0.996264)"/>
      <use xlink:href="#CMSS17-67" transform="translate(685.231028 0) scale(0.996264)"/>
      <use xlink:href="#CMSS17-6c" transform="translate(732.074651 0) scale(0.996264)"/>
      <use xlink:href="#CMSS17-6f" transform="translate(754.255374 0) scale(0.996264)"/>
      <use xlink:href="#CMSS17-62" transform="translate(801.098998 0) scale(0.996264)"/>
      <use xlink:href="#CMSS17-61" transform="translate(849.303941 0) scale(0.996264)"/>
      <use xlink:href="#CMSS17-6c" transform="translate(894.225861 0) scale(0.996264)"/>
      <use xlink:href="#CMSS17-66" transform="translate(950.13408 0) scale(0.996264)"/>
      <use xlink:href="#CMSS17-72" transform="translate(978.760739 0) scale(0.996264)"/>
      <use xlink:href="#CMSS17-61" transform="translate(1010.670511 0) scale(0.996264)"/>
      <use xlink:href="#CMSS17-6d" transform="translate(1055.592432 0) scale(0.996264)"/>
      <use xlink:href="#CMSS17-65" transform="translate(1129.821686 0) scale(0.996264)"/>
      <path d="M 542.721858 0 
L 570.828342 0 
L 570.828342 0.3985 
L 542.721858 0.3985 
L 542.721858 0 
z
"/>
      <path d="M 657.124543 0 
L 685.231028 0 
L 685.231028 0.3985 
L 657.124543 0.3985 
L 657.124543 0 
z
"/>
      <path d="M 922.027595 0 
L 950.13408 0 
L 950.13408 0.3985 
L 922.027595 0.3985 
L 922.027595 0 
z
"/>
     </g>
    </g>
    <g id="PathCollection_17">
     <path d="M 269.367858 223.441631 
C 270.311797 223.441631 271.217201 223.0666 271.884666 222.399135 
C 272.552132 221.73167 272.927163 220.826265 272.927163 219.882327 
C 272.927163 218.938388 272.552132 218.032984 271.884666 217.365518 
C 271.217201 216.698053 270.311797 216.323022 269.367858 216.323022 
C 268.423919 216.323022 267.518515 216.698053 266.85105 217.365518 
C 266.183584 218.032984 265.808553 218.938388 265.808553 219.882327 
C 265.808553 220.826265 266.183584 221.73167 266.85105 222.399135 
C 267.518515 223.0666 268.423919 223.441631 269.367858 223.441631 
z
" style="fill: #7f7f7f"/>
    </g>
    <g id="text_21">
     <!-- Ibis viscous_flux -->
     <g transform="translate(287.367858 222.507327) scale(0.1 -0.1)">
      <defs>
       <path id="CMSS17-d" d="M 1075 2380 
L 1773 2380 
L 1773 2752 
L 1062 2752 
L 1062 3582 
C 1062 3918 1216 4089 1421 4089 
C 1594 4089 1754 4019 1773 4007 
L 1773 4428 
C 1722 4441 1574 4480 1421 4480 
C 941 4480 602 3994 602 3379 
L 602 2752 
L 160 2752 
L 160 2380 
L 602 2380 
L 602 0 
L 1075 0 
L 1075 2380 
z
M 2733 4428 
L 2259 4428 
L 2259 0 
L 2733 0 
L 2733 4428 
z
" transform="scale(0.015625)"/>
       <path id="CMSS17-78" d="M 1587 1420 
L 2656 2752 
L 2099 2752 
L 1363 1785 
L 602 2752 
L 32 2752 
L 1139 1420 
L 0 0 
L 563 0 
L 1363 1126 
L 2195 0 
L 2758 0 
L 1587 1420 
z
" transform="scale(0.015625)"/>
      </defs>
      <use xlink:href="#CMSS17-49" transform="scale(0.996264)"/>
      <use xlink:href="#CMSS17-62" transform="translate(25.783926 0) scale(0.996264)"/>
      <use xlink:href="#CMSS17-69" transform="translate(73.988869 0) scale(0.996264)"/>
      <use xlink:href="#CMSS17-73" transform="translate(96.169592 0) scale(0.996264)"/>
      <use xlink:href="#CMSS17-76" transform="translate(163.312246 0) scale(0.996264)"/>
      <use xlink:href="#CMSS17-69" transform="translate(206.312388 0) scale(0.996264)"/>
      <use xlink:href="#CMSS17-73" transform="translate(228.493111 0) scale(0.996264)"/>
      <use xlink:href="#CMSS17-63" transform="translate(264.406653 0) scale(0.996264)"/>
      <use xlink:href="#CMSS17-6f" transform="translate(306.045475 0) scale(0.996264)"/>
      <use xlink:href="#CMSS17-75" transform="translate(352.889099 0) scale(0.996264)"/>
      <use xlink:href="#CMSS17-73" transform="translate(401.094042 0) scale(0.996264)"/>
      <use xlink:href="#CMSS17-d" transform="translate(470.735079 0) scale(0.996264)"/>
      <use xlink:href="#CMSS17-75" transform="translate(520.861816 0) scale(0.996264)"/>
      <use xlink:href="#CMSS17-78" transform="translate(569.06676 0) scale(0.996264)"/>
      <path d="M 442.628595 0 
L 470.735079 0 
L 470.735079 0.3985 
L 442.628595 0.3985 
L 442.628595 0 
z
"/>
     </g>
    </g>
    <g id="PathCollection_18">
     <g>
      <use xlink:href="#m081c1d1a26" x="269.367858" y="233.819505" style="fill: #bcbd22; stroke: #bcbd22; stroke-width: 1.5"/>
     </g>
    </g>
    <g id="text_22">
     <!-- Chicken fused_flux_calculation -->
     <g transform="translate(287.367858 236.444505) scale(0.1 -0.1)">
      <defs>
       <path id="CMSS17-6b" d="M 1696 1686 
L 2688 2735 
L 2074 2735 
L 954 1552 
L 954 4416 
L 480 4416 
L 480 0 
L 947 0 
L 947 891 
L 1376 1342 
L 2278 0 
L 2822 0 
L 1696 1686 
z
" transform="scale(0.015625)"/>
      </defs>
      <use xlink:href="#CMSS17-43" transform="scale(0.996264)"/>
      <use xlink:href="#CMSS17-68" transform="translate(59.855772 0) scale(0.996264)"/>
      <use xlink:href="#CMSS17-69" transform="translate(108.060715 0) scale(0.996264)"/>
      <use xlink:href="#CMSS17-63" transform="translate(130.241438 0) scale(0.996264)"/>
      <use xlink:href="#CMSS17-6b" transform="translate(171.88026 0) scale(0.996264)"/>
      <use xlink:href="#CMSS17-65" transform="translate(214.880295 0) scale(0.996264)"/>
      <use xlink:href="#CMSS17-6e" transform="translate(256.519117 0) scale(0.996264)"/>
      <use xlink:href="#CMSS17-66" transform="translate(335.953173 0) scale(0.996264)"/>
      <use xlink:href="#CMSS17-75" transform="translate(364.579832 0) scale(0.996264)"/>
      <use xlink:href="#CMSS17-73" transform="translate(412.784775 0) scale(0.996264)"/>
      <use xlink:href="#CMSS17-65" transform="translate(448.698317 0) scale(0.996264)"/>
      <use xlink:href="#CMSS17-64" transform="translate(490.337139 0) scale(0.996264)"/>
      <use xlink:href="#CMSS17-d" transform="translate(572.269577 0) scale(0.996264)"/>
      <use xlink:href="#CMSS17-75" transform="translate(622.396315 0) scale(0.996264)"/>
      <use xlink:href="#CMSS17-78" transform="translate(670.601258 0) scale(0.996264)"/>
      <use xlink:href="#CMSS17-63" transform="translate(747.328895 0) scale(0.996264)"/>
      <use xlink:href="#CMSS17-61" transform="translate(788.967717 0) scale(0.996264)"/>
      <use xlink:href="#CMSS17-6c" transform="translate(833.889637 0) scale(0.996264)"/>
      <use xlink:href="#CMSS17-63" transform="translate(856.070361 0) scale(0.996264)"/>
      <use xlink:href="#CMSS17-75" transform="translate(897.709183 0) scale(0.996264)"/>
      <use xlink:href="#CMSS17-6c" transform="translate(945.914126 0) scale(0.996264)"/>
      <use xlink:href="#CMSS17-61" transform="translate(968.094849 0) scale(0.996264)"/>
      <use xlink:href="#CMSS17-74" transform="translate(1013.016769 0) scale(0.996264)"/>
      <use xlink:href="#CMSS17-69" transform="translate(1046.848336 0) scale(0.996264)"/>
      <use xlink:href="#CMSS17-6f" transform="translate(1069.029059 0) scale(0.996264)"/>
      <use xlink:href="#CMSS17-6e" transform="translate(1115.872683 0) scale(0.996264)"/>
      <path d="M 544.163093 0 
L 572.269577 0 
L 572.269577 0.3985 
L 544.163093 0.3985 
L 544.163093 0 
z
"/>
      <path d="M 719.222411 0 
L 747.328895 0 
L 747.328895 0.3985 
L 719.222411 0.3985 
L 719.222411 0 
z
"/>
     </g>
    </g>
   </g>
  </g>
 </g>
 <defs>
  <clipPath id="p8fa83b7038">
   <rect x="49.667786" y="10.8" width="371.532214" height="236.581683"/>
  </clipPath>
 </defs>
</svg>
